# File created by Blade
# Date/Time:  Thu Sep 25 19:43:58 2014
# Frame Rate: 120.000 fps
#------------------------------------------------------
:FULLY-SPECIFIED
:DEGREES
1353
root -2.658730 33.029490 -4.815823 10.685766 1.098303 -0.483948
Spine -9.375268 4.462855 2.106543
Head -26.324524 -4.237338 12.064221
LeftShoulder -13.385918 17.540396 29.797301
LeftArm 19.638263 -22.410625 -29.237400
LeftForeArm 13.719160 -0.000000 11.430594
LeftHand -24.707240 -0.000000 -12.634314
LeftHandThumb1 -26.253704 0.000000 33.147579
RightShoulder -19.362469 15.490939 -40.262811
RightArm -3.373836 8.757419 30.604517
RightForeArm -28.188520 -0.000000 12.733432
RightHand -11.895824 -0.000000 13.398960
RightHandThumb1 -24.326973 -0.000000 -32.862282
LeftUpLeg -6.625015 3.541236 -0.213749
LeftLeg 0.246799 -0.000000 -0.000000
LeftFoot -10.007896 4.934549 -15.105373
LeftToeBase 10.432359 -0.000000 -0.000000
RightUpLeg -6.584080 -3.264931 2.745426
RightLeg 1.502301 -0.000000 -0.000000
RightFoot -9.367253 -6.071341 0.725538
RightToeBase 1.272364 -0.000000 -0.000000
1354
root -2.647326 33.029136 -4.818056 10.701373 1.063565 -0.475281
Spine -9.374888 4.487194 2.088771
Head -26.320076 -4.240588 12.094638
LeftShoulder -13.382839 17.537602 29.799631
LeftArm 19.610789 -22.348696 -29.221981
LeftForeArm 13.552233 -0.000000 11.467799
LeftHand -24.937951 -0.000000 -12.521535
LeftHandThumb1 -26.253704 0.000000 33.147579
RightShoulder -19.374580 15.454752 -40.248125
RightArm -3.336825 8.776988 30.573819
RightForeArm -28.124529 -0.000000 12.691817
RightHand -11.856951 -0.000000 13.464403
RightHandThumb1 -24.326973 -0.000000 -32.862282
LeftUpLeg -6.629022 3.530880 -0.246943
LeftLeg 0.225834 -0.000000 -0.000000
LeftFoot -10.003717 4.976889 -15.066907
LeftToeBase 10.456192 -0.000000 -0.000000
RightUpLeg -6.608527 -3.248302 2.725600
RightLeg 1.505685 -0.000000 -0.000000
RightFoot -9.366742 -6.126185 0.637203
RightToeBase 1.301536 -0.000000 -0.000000
1355
root -2.638921 33.029039 -4.819161 10.711680 1.026774 -0.498555
Spine -9.368522 4.513391 2.107574
Head -26.308128 -4.226060 12.111993
LeftShoulder -13.399772 17.546388 29.774773
LeftArm 19.611087 -22.357761 -29.224896
LeftForeArm 13.557057 -0.000000 11.459263
LeftHand -24.983079 -0.000000 -12.369257
LeftHandThumb1 -26.253704 0.000000 33.147579
RightShoulder -19.377786 15.443746 -40.242801
RightArm -3.347044 8.814024 30.543935
RightForeArm -28.177094 0.000000 12.695239
RightHand -11.773376 -0.000000 13.515177
RightHandThumb1 -24.326973 -0.000000 -32.862282
LeftUpLeg -6.621250 3.571566 -0.244820
LeftLeg 0.191615 -0.000000 -0.000000
LeftFoot -9.990470 4.969803 -15.081883
LeftToeBase 10.424118 -0.000000 -0.000000
RightUpLeg -6.633015 -3.221922 2.734227
RightLeg 1.524201 -0.000000 -0.000000
RightFoot -9.360020 -6.140108 0.615118
RightToeBase 1.293949 -0.000000 -0.000000
1356
root -2.634341 33.029990 -4.820880 10.744552 0.988444 -0.547144
Spine -9.396225 4.548736 2.147419
Head -26.279229 -4.230483 12.116115
LeftShoulder -13.410676 17.555630 29.754044
LeftArm 19.586936 -22.372162 -29.210679
LeftForeArm 13.633272 -0.000000 11.479422
LeftHand -24.988364 -0.000000 -12.482325
LeftHandThumb1 -26.253704 0.000000 33.147579
RightShoulder -19.378203 15.443602 -40.253573
RightArm -3.378349 8.825426 30.537485
RightForeArm -28.159364 -0.000000 12.718068
RightHand -11.751545 -0.000000 13.487270
RightHandThumb1 -24.326973 -0.000000 -32.862282
LeftUpLeg -6.638143 3.614356 -0.209824
LeftLeg 0.158894 -0.000000 -0.000000
LeftFoot -10.000952 4.955981 -15.081095
LeftToeBase 10.475335 -0.000000 -0.000000
RightUpLeg -6.663795 -3.131447 2.762993
RightLeg 1.506507 -0.000000 -0.000000
RightFoot -9.326740 -6.168201 0.650417
RightToeBase 1.322716 -0.000000 -0.000000
1357
root -2.625846 33.030085 -4.821773 10.771482 0.959818 -0.560870
Spine -9.418766 4.574278 2.151075
Head -26.247445 -4.237712 12.130555
LeftShoulder -13.417718 17.553417 29.734333
LeftArm 19.586792 -22.339842 -29.187454
LeftForeArm 13.710273 0.000000 11.399548
LeftHand -24.851036 0.000000 -12.379406
LeftHandThumb1 -26.253704 0.000000 33.147579
RightShoulder -19.378357 15.424406 -40.263534
RightArm -3.406555 8.834814 30.535264
RightForeArm -28.127711 -0.000000 12.738130
RightHand -11.763972 -0.000000 13.459820
RightHandThumb1 -24.326973 -0.000000 -32.862282
LeftUpLeg -6.642326 3.637526 -0.213636
LeftLeg 0.116435 -0.000000 -0.000000
LeftFoot -9.981093 4.945319 -15.080797
LeftToeBase 10.434969 -0.000000 -0.000000
RightUpLeg -6.704146 -3.108865 2.763518
RightLeg 1.525120 -0.000000 -0.000000
RightFoot -9.323460 -6.185223 0.615862
RightToeBase 1.298725 -0.000000 -0.000000
